{
    "asset" : {
        "generator" : "Khronos glTF Blender I/O v1.6.16",
        "version" : "2.0"
    },
    "scene" : 0,
    "scenes" : [
        {
            "name" : "Scene",
            "nodes" : [
                0,
                1,
                3,
                4
            ]
        }
    ],
    "nodes" : [
        {
            "name" : "Light",
            "rotation" : [
                0.16907575726509094,
                0.7558803558349609,
                -0.27217137813568115,
                0.570947527885437
            ],
            "translation" : [
                0.6640046834945679,
                0.4296097755432129,
                -0.40372025966644287
            ]
        },
        {
            "name" : "Camera",
            "rotation" : [
                0.3568578362464905,
                -0.3609486520290375,
                0.1518746316432953,
                0.8481171131134033
            ],
            "translation" : [
                -0.22094659507274628,
                0.3055770993232727,
                0.22367078065872192
            ]
        },
        {
            "mesh" : 0,
            "name" : "icing"
        },
        {
            "children" : [
                2
            ],
            "mesh" : 1,
            "name" : "Donut",
            "rotation" : [
                0,
                0.6887782216072083,
                0,
                0.7249720692634583
            ],
            "translation" : [
                -0.005169197451323271,
                0.025966869667172432,
                0.024754084646701813
            ]
        },
        {
            "mesh" : 2,
            "name" : "Plane"
        }
    ],
    "materials" : [
        {
            "doubleSided" : true,
            "name" : "Material.002",
            "pbrMetallicRoughness" : {
                "baseColorFactor" : [
                    0.8000000715255737,
                    0.12320274859666824,
                    0.3984259068965912,
                    1
                ],
                "metallicFactor" : 0,
                "roughnessFactor" : 0.3264463245868683
            }
        },
        {
            "doubleSided" : true,
            "name" : "Material.003",
            "pbrMetallicRoughness" : {
                "baseColorFactor" : [
                    0.8000000715255737,
                    0.4732072651386261,
                    0.18454550206661224,
                    1
                ],
                "metallicFactor" : 0,
                "roughnessFactor" : 0.5
            }
        },
        {
            "doubleSided" : true,
            "name" : "Material.001",
            "pbrMetallicRoughness" : {
                "baseColorFactor" : [
                    0.00981652271002531,
                    0.45519864559173584,
                    0.8000000715255737,
                    1
                ],
                "metallicFactor" : 0,
                "roughnessFactor" : 0.5
            }
        }
    ],
    "meshes" : [
        {
            "name" : "Torus.002",
            "primitives" : [
                {
                    "attributes" : {
                        "POSITION" : 0,
                        "NORMAL" : 1,
                        "TEXCOORD_0" : 2
                    },
                    "indices" : 3,
                    "material" : 0
                }
            ]
        },
        {
            "name" : "Torus.001",
            "primitives" : [
                {
                    "attributes" : {
                        "POSITION" : 4,
                        "NORMAL" : 5,
                        "TEXCOORD_0" : 6
                    },
                    "indices" : 7,
                    "material" : 1
                }
            ]
        },
        {
            "name" : "Plane",
            "primitives" : [
                {
                    "attributes" : {
                        "POSITION" : 8,
                        "NORMAL" : 9,
                        "TEXCOORD_0" : 10
                    },
                    "indices" : 11,
                    "material" : 2
                }
            ]
        }
    ],
    "accessors" : [
        {
            "bufferView" : 0,
            "componentType" : 5126,
            "count" : 4785,
            "max" : [
                0.07340264320373535,
                0.03738465905189514,
                0.07197806239128113
            ],
            "min" : [
                -0.08123429864645004,
                0.004278160165995359,
                -0.08375394344329834
            ],
            "type" : "VEC3"
        },
        {
            "bufferView" : 1,
            "componentType" : 5126,
            "count" : 4785,
            "type" : "VEC3"
        },
        {
            "bufferView" : 2,
            "componentType" : 5126,
            "count" : 4785,
            "type" : "VEC2"
        },
        {
            "bufferView" : 3,
            "componentType" : 5123,
            "count" : 25296,
            "type" : "SCALAR"
        },
        {
            "bufferView" : 4,
            "componentType" : 5126,
            "count" : 1513,
            "max" : [
                0.07377676665782928,
                0.034189142286777496,
                0.07196443527936935
            ],
            "min" : [
                -0.08103147894144058,
                -0.028327323496341705,
                -0.08164321631193161
            ],
            "type" : "VEC3"
        },
        {
            "bufferView" : 5,
            "componentType" : 5126,
            "count" : 1513,
            "type" : "VEC3"
        },
        {
            "bufferView" : 6,
            "componentType" : 5126,
            "count" : 1513,
            "type" : "VEC2"
        },
        {
            "bufferView" : 7,
            "componentType" : 5123,
            "count" : 8064,
            "type" : "SCALAR"
        },
        {
            "bufferView" : 8,
            "componentType" : 5126,
            "count" : 4,
            "max" : [
                1,
                0,
                1
            ],
            "min" : [
                -1,
                0,
                -1
            ],
            "type" : "VEC3"
        },
        {
            "bufferView" : 9,
            "componentType" : 5126,
            "count" : 4,
            "type" : "VEC3"
        },
        {
            "bufferView" : 10,
            "componentType" : 5126,
            "count" : 4,
            "type" : "VEC2"
        },
        {
            "bufferView" : 11,
            "componentType" : 5123,
            "count" : 6,
            "type" : "SCALAR"
        }
    ],
    "bufferViews" : [
        {
            "buffer" : 0,
            "byteLength" : 57420,
            "byteOffset" : 0
        },
        {
            "buffer" : 0,
            "byteLength" : 57420,
            "byteOffset" : 57420
        },
        {
            "buffer" : 0,
            "byteLength" : 38280,
            "byteOffset" : 114840
        },
        {
            "buffer" : 0,
            "byteLength" : 50592,
            "byteOffset" : 153120
        },
        {
            "buffer" : 0,
            "byteLength" : 18156,
            "byteOffset" : 203712
        },
        {
            "buffer" : 0,
            "byteLength" : 18156,
            "byteOffset" : 221868
        },
        {
            "buffer" : 0,
            "byteLength" : 12104,
            "byteOffset" : 240024
        },
        {
            "buffer" : 0,
            "byteLength" : 16128,
            "byteOffset" : 252128
        },
        {
            "buffer" : 0,
            "byteLength" : 48,
            "byteOffset" : 268256
        },
        {
            "buffer" : 0,
            "byteLength" : 48,
            "byteOffset" : 268304
        },
        {
            "buffer" : 0,
            "byteLength" : 32,
            "byteOffset" : 268352
        },
        {
            "buffer" : 0,
            "byteLength" : 12,
            "byteOffset" : 268384
        }
    ],
    "buffers" : [
        {
            "byteLength" : 268396,
            "uri" : "data:application/octet-stream;base64,"
        }
    ]
}
